<?xml version="1.0" encoding="utf-8"?>
<!-- Generator: Adobe Illustrator 21.1.0, SVG Export Plug-In . SVG Version: 6.00 Build 0)  -->
<svg version="1.1" id="Layer_1" xmlns="http://www.w3.org/2000/svg" xmlns:xlink="http://www.w3.org/1999/xlink" x="0px" y="0px"
	 viewBox="0 0 128.7 216" style="enable-background:new 0 0 128.7 216;" xml:space="preserve">
<style type="text/css">
	.st0{fill:#FFFFFF;}
</style>
<title>j$_white</title>
<polygon class="st0" points="44,190.6 44,56 27.9,65.1 27.9,181.4 0,197.4 0,216 "/>
<polygon class="st0" points="44,32.5 27.9,41.8 27.9,62 44,52.7 "/>
<polygon class="st0" points="94.3,45.3 94.3,26.7 94.3,0 78.3,9.3 78.3,9.3 78.3,36 78.3,54.6 78.3,76.2 94.3,89.8 "/>
<polygon class="st0" points="78.3,152.1 78.3,170.7 78.3,198.1 78.3,198.1 94.3,188.9 94.3,161.4 94.3,142.8 94.3,116.8 78.3,103.2 
	"/>
<polygon class="st0" points="97.7,24.8 97.7,43.5 128.7,25.5 128.7,6.8 "/>
<polygon class="st0" points="94.3,94.1 78.3,80.4 78.3,80.4 62.3,66.8 60.3,65.1 75.2,56.5 75.2,37.8 47.1,54 47.1,72.6 78.3,99 
	94.3,112.7 114.3,129.4 115.7,130.6 97.7,141 97.7,159.6 128.7,141.8 128.7,123 128.7,123 "/>
<polygon class="st0" points="47.1,188.7 75.2,172.6 75.2,153.9 47.1,170.1 "/>
</svg>
